# xmcd
#
# Track frame offsets:
#	150
#	21101
#	35654
#	59211
#	76252
#	92281
#	110077
#	130913
#	152421
#	170288
#	183715
#
# Disc length: 2646 seconds
#
# Revision: 0
# Processed by: cddbd v1.5.2PL0 Copyright (c) Steve Scherf et al.
# Submitted via: EasyCDDAExtractor 9.1.3.1
#
DISCID=8b0a540b
DTITLE=Ksenija - Umetnost noćnog letenja
DYEAR=1900
DGENRE=
TTITLE0=Jesam grešna
TTITLE1=Do bola 
TTITLE2=Ne daj me
TTITLE3=Zauvek 
TTITLE4=Dujina pesma
TTITLE5=Umetnost noćnog letenja
TTITLE6=Noćne ulice
TTITLE7=Easy player
TTITLE8=Ne traži spas
TTITLE9=Srce ludo
TTITLE10=Samo ti
EXTD=
EXTT0=
EXTT1=
EXTT2=
EXTT3=
EXTT4=
EXTT5=
EXTT6=
EXTT7=
EXTT8=
EXTT9=
EXTT10=
PLAYORDER=
